<?xml version="1.0" standalone="no"?>
<!DOCTYPE svg PUBLIC "-//W3C//DTD SVG 20010904//EN"
 "http://www.w3.org/TR/2001/REC-SVG-20010904/DTD/svg10.dtd">
<svg version="1.0" xmlns="http://www.w3.org/2000/svg"
 width="838.000000pt" height="630.000000pt" viewBox="0 0 838.000000 630.000000"
 preserveAspectRatio="xMidYMid meet">
<metadata>
Created by potrace 1.13, written by Peter Selinger 2001-2015
</metadata>
<g transform="translate(0.000000,630.000000) scale(0.100000,-0.100000)"
fill="#000000" stroke="none">
<path d="M5405 6115 c-219 -36 -325 -92 -438 -234 -156 -196 -200 -406 -178
-851 6 -127 20 -317 31 -423 33 -321 25 -428 -44 -565 -43 -85 -95 -156 -266
-362 -242 -292 -250 -307 -353 -680 -38 -134 -90 -265 -151 -373 l-37 -67 -51
56 c-28 30 -64 72 -80 92 -16 20 -73 84 -127 142 -53 58 -259 285 -457 505
-198 220 -377 414 -396 432 -44 37 -82 47 -153 38 -65 -8 -127 -50 -158 -109
-31 -60 -30 -160 3 -207 14 -19 187 -214 385 -435 198 -220 404 -451 457 -511
54 -61 132 -149 175 -195 214 -231 217 -235 214 -285 -1 -24 3 -60 9 -78 9
-27 8 -39 -4 -57 -8 -13 -28 -60 -46 -105 -40 -107 -55 -113 -249 -113 l-139
0 -44 -33 c-24 -18 -56 -56 -71 -84 -42 -78 -44 -145 -13 -364 31 -216 29
-239 -36 -359 -22 -41 -51 -95 -64 -119 -16 -30 -24 -61 -24 -94 0 -44 4 -54
38 -87 57 -56 186 -100 397 -135 149 -24 382 -87 635 -171 338 -112 365 -119
505 -119 114 0 123 2 187 32 36 17 93 56 126 86 67 62 129 89 267 118 198 42
483 43 870 4 261 -27 240 -21 274 -74 55 -85 137 -145 250 -182 52 -18 91 -23
181 -23 114 -1 117 0 190 36 86 43 138 82 354 268 228 196 306 249 525 357
107 53 210 110 229 127 66 58 91 159 56 232 -23 49 -72 88 -174 139 -104 52
-203 131 -228 183 -11 20 -24 77 -31 125 -22 166 -73 277 -126 277 -13 0 -16
6 -12 23 3 12 13 58 23 102 16 65 19 120 19 295 0 308 -27 436 -154 730 -97
227 -214 420 -343 565 -96 109 -328 456 -398 596 -27 52 -58 126 -69 165 -32
106 -64 337 -91 654 -30 350 -83 575 -172 724 -117 197 -340 346 -579 387
-105 18 -343 20 -444 4z m590 -910 c24 -14 53 -38 63 -53 55 -76 70 -259 37
-442 -9 -52 -18 -97 -21 -99 -2 -2 -21 3 -41 12 -21 8 -50 18 -65 21 -36 8
-35 18 4 36 65 31 96 115 78 212 -14 71 -38 116 -81 151 -54 42 -106 46 -165
12 -68 -40 -87 -88 -82 -215 l3 -97 -23 10 c-30 14 -48 49 -67 129 -30 128 -9
246 54 302 67 60 222 71 306 21z m-819 -25 c80 -39 123 -129 124 -262 0 -131
-33 -190 -43 -75 -9 107 -32 164 -77 193 -70 46 -136 19 -181 -73 -41 -85 -12
-242 52 -280 36 -22 36 -28 -1 -43 -40 -16 -59 0 -103 89 -29 60 -31 71 -30
161 2 149 51 262 128 296 43 19 82 17 131 -6z m476 -448 c440 -154 539 -208
523 -286 -14 -67 -55 -106 -239 -228 -289 -192 -384 -233 -532 -226 -120 5
-179 34 -293 142 -76 73 -141 155 -141 179 0 5 13 -2 30 -16 42 -35 127 -82
183 -101 165 -55 322 -34 537 74 123 62 266 155 251 164 -6 4 -11 16 -11 27 0
20 -15 26 -25 9 -8 -14 -164 -118 -235 -157 -140 -78 -307 -120 -409 -104
-121 20 -275 105 -325 181 -24 37 -26 45 -16 75 31 94 209 228 395 296 76 28
168 20 307 -29z m503 -612 c32 -74 93 -202 135 -285 62 -119 79 -162 85 -210
16 -143 61 -248 195 -450 95 -145 120 -206 167 -410 27 -117 27 -128 28 -440
0 -176 -4 -341 -8 -367 l-8 -47 -32 19 c-43 26 -122 27 -161 1 -36 -24 -82
-91 -96 -140 -19 -67 -32 -190 -26 -253 3 -35 9 -101 12 -148 l6 -85 -80 -95
c-190 -225 -419 -361 -699 -416 -134 -27 -402 -24 -508 5 -153 41 -226 94
-280 201 l-34 68 45 11 c49 13 144 92 170 143 44 85 20 121 -401 587 -170 189
-316 352 -323 362 -11 14 -11 38 -3 126 23 227 80 393 261 753 105 210 130
270 144 337 23 114 69 231 168 424 60 115 89 184 98 232 8 37 16 67 19 67 3 0
41 -31 84 -70 89 -80 111 -93 185 -109 200 -42 403 29 681 240 64 48 117 87
118 86 0 -1 27 -63 58 -137z m691 -834 c69 -32 124 -84 179 -166 107 -161 145
-370 115 -635 -9 -80 -48 -262 -65 -307 -6 -14 4 -17 72 -23 166 -14 265 -44
342 -105 50 -40 101 -124 101 -167 0 -30 -28 -30 -40 0 -13 31 -80 117 -110
138 -58 43 -170 72 -292 77 -112 4 -121 3 -171 -22 -47 -23 -115 -87 -174
-165 -9 -12 -14 -13 -24 -4 -26 25 74 156 165 217 51 34 53 38 79 123 53 171
61 228 61 398 -1 132 -5 174 -22 240 -47 171 -134 295 -253 359 -30 16 -55 30
-57 31 -1 1 0 10 4 19 8 22 30 20 90 -8z m-2316 -118 c0 -5 -18 -32 -39 -61
-53 -70 -110 -179 -165 -313 -62 -152 -93 -264 -107 -389 l-13 -105 -28 27
c-33 31 -35 58 -13 163 21 99 55 195 131 368 69 157 121 258 160 309 22 29 27
31 49 21 14 -6 25 -15 25 -20z m-441 -1204 c118 -54 191 -138 333 -381 44 -76
143 -223 220 -326 77 -103 141 -194 142 -202 1 -8 9 -21 18 -27 22 -18 102
-160 134 -238 55 -137 76 -274 57 -371 -9 -46 -101 -136 -177 -172 -32 -16
-87 -34 -122 -39 -81 -14 -138 -1 -409 94 -286 101 -471 155 -620 184 -71 14
-177 34 -235 45 -173 33 -270 90 -270 159 0 15 26 81 59 146 32 66 64 137 72
159 19 59 15 185 -11 315 -15 75 -20 132 -17 167 7 68 53 153 91 172 19 9 86
17 180 21 221 11 240 22 266 145 19 87 56 130 138 160 55 20 91 18 151 -11z
m2609 -88 c41 -21 57 -45 76 -114 23 -89 58 -152 105 -195 64 -58 102 -70 216
-71 88 -1 107 2 155 25 30 14 80 50 111 80 31 30 93 89 137 132 90 86 121 97
141 50 6 -16 22 -82 36 -148 44 -215 106 -305 267 -386 128 -64 178 -120 178
-198 0 -85 -46 -136 -165 -180 -70 -26 -290 -140 -355 -184 -59 -40 -113 -85
-298 -244 -84 -73 -165 -140 -180 -149 -15 -10 -49 -32 -77 -50 -94 -61 -258
-81 -378 -44 -62 18 -157 90 -198 150 l-38 55 14 65 c8 36 20 124 26 195 6 72
17 164 25 205 10 56 14 163 14 415 1 353 7 453 36 525 28 69 92 97 152 66z"/>
<path d="M2580 6106 c-3 -2 -43 -7 -90 -10 -271 -21 -661 -148 -945 -308 -397
-225 -758 -582 -981 -973 -111 -194 -205 -428 -259 -645 -71 -288 -82 -695
-25 -950 47 -212 78 -306 157 -480 87 -193 286 -475 363 -515 43 -22 131 -29
176 -15 114 38 186 179 139 271 -22 41 -27 185 -10 250 34 126 133 257 259
339 126 83 285 106 411 59 80 -30 175 -32 230 -3 41 21 100 96 112 142 3 15 1
65 -6 112 -20 145 19 304 110 436 46 69 172 197 250 255 180 133 427 192 566
134 102 -43 224 7 273 112 24 50 24 80 -1 226 -26 156 21 288 150 417 177 178
379 225 578 134 93 -42 235 23 278 128 21 51 21 137 1 175 -22 42 -186 213
-252 263 -33 24 -84 63 -115 86 -31 23 -88 59 -125 79 -150 81 -215 114 -251
125 -21 7 -42 16 -48 20 -5 4 -50 19 -100 34 -49 15 -97 30 -105 33 -36 12
-201 44 -310 60 -48 7 -425 15 -430 9z m400 -442 c161 -26 205 -37 305 -70 55
-18 129 -46 164 -62 l64 -29 -75 -36 c-99 -48 -216 -136 -304 -229 -145 -153
-219 -298 -250 -486 -8 -48 -14 -90 -14 -94 0 -3 -24 -9 -52 -12 -300 -36
-541 -156 -772 -383 -189 -187 -301 -379 -351 -600 -10 -46 -21 -83 -24 -84
-3 0 -41 -2 -83 -4 -174 -7 -359 -75 -508 -185 -83 -62 -216 -198 -265 -272
-21 -32 -41 -58 -44 -58 -7 0 -20 41 -47 140 -65 246 -68 575 -8 835 50 217
171 498 292 680 249 372 631 681 1032 832 121 46 300 94 417 112 146 23 402
25 523 5z"/>
</g>
</svg>
